# xmcd
#
# Track frame offsets:
#	150
#	9840
#	19040
#	28871
#	40216
#	52768
#	61609
#	70862
#	80364
#	92115
#	102825
#	112284
#
# Disc length: 1636 seconds
# Revision: 0
# Processed by: cddbd v1.5.2PL0 Copyright (c) Steve Scherf et al.
# Submitted via: dBpowerAMP V12.0
#
DISCID=8b06620c
DTITLE=Chet Atkins - Our Man In Nashville
DYEAR=1900
DGENRE=Country
TTITLE0=Scare Crow
TTITLE1=Alexander's Ragtime Band
TTITLE2=Melissa
TTITLE3=Goodnight Irene
TTITLE4=The Old Double Shuffle
TTITLE5=Down Home
TTITLE6=Always On Saturday
TTITLE7=Drown In My Own Tears
TTITLE8=Spanish Harlem
TTITLE9=Streamlined Cannon Ball
TTITLE10=A House In New Orleans
TTITLE11=A Little Bitty Tear
EXTD=
EXTT0=
EXTT1=
EXTT2=
EXTT3=
EXTT4=
EXTT5=
EXTT6=
EXTT7=
EXTT8=
EXTT9=
EXTT10=
EXTT11=
PLAYORDER=
